@startuml

skinparam componentStyle uml2

package "'Consulta' Aggregate" <<Rectangle>> {
	class Consulta <<(A,#fffab8) Aggregate Root>> {
		Date horario
		String status
		ConsultaId_Att id
		PacienteId_Adm paciente
		MedicoId_Adm medico
		boolean isDisponivel()
	}
	class ConsultaAgendadaEvento <<(E,#ff9f4b) Domain Event>> {
		ConsultaId_Att consulta
		PacienteId_Adm paciente
	}
	class ConsultaCanceladaEvento <<(E,#ff9f4b) Domain Event>> {
		ConsultaId_Att consulta
	}
	class ConsultaId_Att <<(V,DarkSeaGreen) Value Object>> {
		String codigo
	}
	class AgendamentoServico <<(S,DarkSeaGreen) Service>> {
		void agendarConsulta(PacienteId_Adm paciente, MedicoId_Adm medico, Date horario)
		void remarcarConsulta(ConsultaId_Att consulta, Date novoHorario)
		void cancelarConsulta(ConsultaId_Att consulta)
	}
}
package "'Exame' Aggregate" <<Rectangle>> {
	class Exame <<(A,#fffab8) Aggregate Root>> {
		Date dataAgendamento
		String status
		ExameId_Att id
		PacienteId_Adm paciente
		MedicoId_Adm medico
		TipoExameId_Ref tipoExame
	}
	class ExameId_Att <<(V,DarkSeaGreen) Value Object>> {
		String codigo
	}
}
ConsultaAgendadaEvento --> ConsultaId_Att : consulta
Exame --> ExameId_Att : id
Consulta --> ConsultaId_Att : id
ConsultaCanceladaEvento --> ConsultaId_Att : consulta
legend left
  This bounded context implements the subdomain 'Atendimento'.
end legend


@enduml
